<?xml version="1.0" encoding="UTF-8"?>
<svg version="1.1" xmlns="http://www.w3.org/2000/svg" width="500" height="500">
<path d="M0 0 C8.88468503 6.35755638 15.42958137 14.86746944 17.8359375 25.66015625 C18.12697793 27.89015525 18.24974519 30.06509331 18.3125 32.3125 C18.374375 33.10269531 18.43625 33.89289063 18.5 34.70703125 C19.07918343 46.20020236 13.82948184 55.58910199 6.72265625 64.25 C-0.00117594 71.59084268 -9.39987971 75.72217757 -19.265625 76.6484375 C-30.40117959 76.76690085 -38.93525215 74.93207434 -47.8359375 68.0703125 C-49.72033305 67.09404699 -49.72033305 67.09404699 -51.95703125 67.8125 C-55.68206108 69.85886832 -58.76086254 72.45160268 -62 75.1875 C-70.02558174 81.84696526 -78.29810999 88.12086242 -86.6875 94.3125 C-86.41035156 95.02535156 -86.13320313 95.73820312 -85.84765625 96.47265625 C-85.48542969 97.43042969 -85.12320313 98.38820313 -84.75 99.375 C-84.21052734 100.78458984 -84.21052734 100.78458984 -83.66015625 102.22265625 C-80.20915784 113.18546646 -80.87510649 125.59476122 -86.17578125 135.81640625 C-93.8553995 148.49670615 -103.56261031 155.27681723 -117.6875 159.3125 C-117.6875 176.1425 -117.6875 192.9725 -117.6875 210.3125 C-113.7275 211.6325 -109.7675 212.9525 -105.6875 214.3125 C-94.80500871 220.32185714 -88.39802178 228.57870337 -84.6875 240.3125 C-82.09142625 251.77849238 -82.84611571 263.40165016 -89.04296875 273.52734375 C-90.49809401 275.55983775 -92.03764039 277.4354858 -93.6875 279.3125 C-94.20054687 279.92996094 -94.71359375 280.54742187 -95.2421875 281.18359375 C-102.32377723 289.06143879 -112.5239931 292.49027628 -122.859375 293.53125 C-134.18795607 294.01331728 -143.82803646 289.44859191 -152.875 283.0625 C-160.62482008 275.48489815 -165.73242561 265.73088924 -165.98046875 254.85131836 C-166.08752906 240.93481575 -163.57305116 231.61447548 -153.6875 221.3125 C-147.36892994 215.41263036 -139.99968596 212.39054649 -131.6875 210.3125 C-131.6875 193.1525 -131.6875 175.9925 -131.6875 158.3125 C-134.6575 157.6525 -137.6275 156.9925 -140.6875 156.3125 C-152.20841739 151.60825025 -159.13296992 144.42737405 -164.4609375 133.33984375 C-165.77944048 130.08557685 -166.72289222 126.68862722 -167.6875 123.3125 C-184.1875 123.3125 -200.6875 123.3125 -217.6875 123.3125 C-218.6775 126.6125 -219.6675 129.9125 -220.6875 133.3125 C-226.76034162 144.92326973 -236.30059918 152.41756357 -248.6875 156.3125 C-260.75679313 158.67224971 -271.98693917 156.80626436 -282.37109375 150.0390625 C-290.95012271 143.64457548 -297.47225149 135.62402812 -299.40234375 124.88671875 C-300.79532944 112.31168352 -299.55917598 101.56953234 -291.6875 91.3125 C-290.965625 90.3225 -290.24375 89.3325 -289.5 88.3125 C-286.17586555 84.42926037 -282.05319296 81.89420547 -277.6875 79.3125 C-277.05585938 78.89484375 -276.42421875 78.4771875 -275.7734375 78.046875 C-267.30268246 73.25465502 -255.34139676 73.96129339 -246.140625 76.16015625 C-234.55651083 80.58672837 -226.27362816 88.29894051 -220.6875 99.3125 C-219.06696522 103.43846684 -218.6875 105.74943095 -218.6875 110.3125 C-201.5275 110.3125 -184.3675 110.3125 -166.6875 110.3125 C-166.3575 107.6725 -166.0275 105.0325 -165.6875 102.3125 C-164.63587352 98.52664466 -163.5131184 95.1381184 -160.6875 92.3125 C-167.97711941 84.84042352 -167.97711941 84.84042352 -175.6875 77.8125 C-179.02047624 74.97127435 -182.11362837 71.92832859 -185.1875 68.8125 C-189.52149041 64.43015265 -193.96774622 60.27492939 -198.6875 56.3125 C-200.42 57.240625 -200.42 57.240625 -202.1875 58.1875 C-211.45382521 62.7880347 -220.29740621 63.60751946 -230.16796875 60.34765625 C-237.93292642 57.15740232 -243.33969534 52.44871434 -247.6875 45.3125 C-248.10128906 44.65765625 -248.51507813 44.0028125 -248.94140625 43.328125 C-253.05046332 35.71133628 -252.82714171 26.79183698 -251.09765625 18.4765625 C-248.0661271 9.61946811 -241.56134556 2.43574277 -233.25 -1.75 C-231.73750217 -2.41512033 -230.21818913 -3.06538627 -228.6875 -3.6875 C-228.0275 -4.0175 -227.3675 -4.3475 -226.6875 -4.6875 C-215.44883575 -5.62629057 -205.6972629 -4.96530145 -196.34765625 2.07421875 C-189.83566264 8.05264119 -185.25392149 16.06329246 -184.44921875 24.94140625 C-184.27758464 31.72547022 -185.18926199 36.74774203 -188.0078125 42.9375 C-188.88742105 45.24303458 -188.88742105 45.24303458 -188.16015625 47.29296875 C-186.10525413 50.1109645 -183.60681419 52.33628394 -181 54.625 C-179.90642636 55.604213 -178.8139726 56.58467816 -177.72265625 57.56640625 C-177.19687988 58.03836426 -176.67110352 58.51032227 -176.12939453 58.99658203 C-174.33988489 60.6297444 -172.63068503 62.33002994 -170.9375 64.0625 C-167.99489914 67.06223874 -164.87004527 69.7939405 -161.6875 72.53515625 C-158.54961898 75.32370286 -155.61339677 78.30431238 -152.6875 81.3125 C-149.6948471 80.22426258 -147.21163343 79.01391706 -144.5 77.3125 C-135.9867028 72.42692473 -125.2118822 72.34224069 -115.6875 73.3125 C-109.72667057 74.97822832 -104.61924459 77.43837628 -99.75 81.25 C-98.739375 81.930625 -97.72875 82.61125 -96.6875 83.3125 C-91.8803262 82.18777129 -88.40080806 78.89274311 -84.6875 75.8125 C-83.35900969 74.72801811 -82.02956407 73.64470553 -80.69921875 72.5625 C-80.03196777 72.01851563 -79.3647168 71.47453125 -78.67724609 70.9140625 C-74.65303503 67.67494292 -70.51750384 64.58042743 -66.39453125 61.46875 C-63.97570858 59.54206874 -61.81755877 57.54931589 -59.6875 55.3125 C-59.96464844 54.71824219 -60.24179687 54.12398437 -60.52734375 53.51171875 C-64.8563737 43.60578901 -66.33943588 32.47549012 -62.9375 22.00390625 C-57.64394144 9.27730922 -49.87245698 0.7237243 -37.203125 -4.7421875 C-24.5064429 -9.51330096 -11.30188627 -6.91205651 0 0 Z M-149.6875 93.3125 C-155.36420505 100.22920675 -158.61968322 107.30417062 -158.6875 116.3125 C-157.48582928 127.70166807 -152.86650794 136.53088258 -144.01953125 143.8046875 C-137.0277413 148.32534231 -128.92893659 150.25996443 -120.6875 149.3125 C-119.96046875 149.24160156 -119.2334375 149.17070312 -118.484375 149.09765625 C-111.87617522 148.06945733 -106.63138336 144.74236902 -101.6875 140.3125 C-100.40322236 138.2073357 -100.40322236 138.2073357 -99.6875 136.3125 C-99.0275 136.3125 -98.3675 136.3125 -97.6875 136.3125 C-92.32183256 127.54857652 -90.66352068 119.61473097 -91.6875 109.3125 C-92.63177628 106.03673744 -93.9686447 103.247131 -95.6875 100.3125 C-96.244375 99.301875 -96.80125 98.29125 -97.375 97.25 C-103.34585718 89.66539764 -109.17684072 85.21144036 -118.6875 83.3125 C-119.80125 83.02375 -120.915 82.735 -122.0625 82.4375 C-132.73414522 82.06951223 -141.76429734 86.49854571 -149.6875 93.3125 Z " fill="#F1D05A" transform="translate(390.6875,106.6875)"/>
<path d="M0 0 C8.88468503 6.35755638 15.42958137 14.86746944 17.8359375 25.66015625 C18.12697793 27.89015525 18.24974519 30.06509331 18.3125 32.3125 C18.4053125 33.49779297 18.4053125 33.49779297 18.5 34.70703125 C19.07918343 46.20020236 13.82948184 55.58910199 6.72265625 64.25 C-0.00117594 71.59084268 -9.39987971 75.72217757 -19.265625 76.6484375 C-30.40117959 76.76690085 -38.93525215 74.93207434 -47.8359375 68.0703125 C-49.71815161 67.09559524 -49.71815161 67.09559524 -51.9453125 67.8046875 C-55.73562353 69.88881863 -58.88476939 72.53507747 -62.1875 75.3125 C-63.6112363 76.48397633 -65.0357264 77.6545371 -66.4609375 78.82421875 C-68.51007368 80.5141271 -70.55815803 82.20522069 -72.60253906 83.90087891 C-74.32793885 85.32351986 -76.06769663 86.72627333 -77.8125 88.125 C-78.80507813 88.93582031 -79.79765625 89.74664062 -80.8203125 90.58203125 C-84.13535841 92.58280146 -85.88185767 92.8682614 -89.6875 92.3125 C-92.26035724 90.139865 -94.17746919 88.33256162 -95.6875 85.3125 C-91.53773497 80.92395881 -86.97635494 77.29406792 -82.1875 73.625 C-81.39811035 73.01575684 -80.6087207 72.40651367 -79.79541016 71.77880859 C-77.42867413 69.95334189 -75.05834322 68.13262762 -72.6875 66.3125 C-71.33049917 65.2672256 -69.97371165 64.22167419 -68.6171875 63.17578125 C-65.64355216 60.88419779 -62.66667229 58.596883 -59.6875 56.3125 C-59.96464844 55.64605469 -60.24179687 54.97960937 -60.52734375 54.29296875 C-64.87420541 43.23244887 -66.69488601 31.03728846 -62 19.75 C-55.7724348 7.09398041 -47.99234659 -0.68785268 -34.6875 -5.6875 C-22.84313153 -9.53753282 -10.2530862 -6.27062683 0 0 Z " fill="#FDCD0A" transform="translate(390.6875,106.6875)"/>
<path d="M0 0 C0 0.66 0 1.32 0 2 C1.98 2 3.96 2 6 2 C6 2.66 6 3.32 6 4 C6.66 4 7.32 4 8 4 C8.495 4.99 8.495 4.99 9 6 C10.0725 6.103125 11.145 6.20625 12.25 6.3125 C16.84537853 7.15498606 18.02541155 8.47746104 21 12 C22.2684375 13.3303125 22.2684375 13.3303125 23.5625 14.6875 C31.10827195 23.92333444 31.94613002 36.57981086 31 48 C29.30592546 55.44424754 26.00586057 61.30492675 21 67 C20.23042969 67.92619141 20.23042969 67.92619141 19.4453125 68.87109375 C12.36372277 76.74893879 2.1635069 80.17777628 -8.171875 81.21875 C-19.50045607 81.70081728 -29.14053646 77.13609191 -38.1875 70.75 C-45.93702296 63.17268866 -51.04581658 53.41802831 -51.29272461 42.53857422 C-51.38754838 30.3660111 -49.79464727 21.38088089 -41.80859375 11.74609375 C-39.42245783 9.44241609 -37.23788428 8.60239707 -34 8 C-33.34 7.67 -32.68 7.34 -32 7 C-32 6.34 -32 5.68 -32 5 C-31.195625 4.87625 -30.39125 4.7525 -29.5625 4.625 C-28.716875 4.41875 -27.87125 4.2125 -27 4 C-26.67 3.34 -26.34 2.68 -26 2 C-17.27558889 -1.53130926 -9.16902527 -0.89622052 0 0 Z " fill="#FECD09" transform="translate(276,319)"/>
<path d="M0 0 C0.71800781 0.38414062 1.43601563 0.76828125 2.17578125 1.1640625 C7.2117702 4.22944708 8.4400356 7.58600592 10 13 C10.66 13 11.32 13 12 13 C12 13.99 12 14.98 12 16 C12.66 16 13.32 16 14 16 C14 17.32 14 18.64 14 20 C14.66 20 15.32 20 16 20 C21.85472196 43.24464017 21.85472196 43.24464017 16.2578125 53.94921875 C9.4423066 65.06145664 1.54835251 71.95106492 -11 76 C-23.06276606 78.37054358 -34.30664477 76.48906858 -44.68359375 69.7265625 C-53.26262271 63.33207548 -59.78475149 55.31152812 -61.71484375 44.57421875 C-63.10782944 31.99918352 -61.87167598 21.25703234 -54 11 C-52.9171875 9.515 -52.9171875 9.515 -51.8125 8 C-48.48836555 4.11676037 -44.36569296 1.58170547 -40 -1 C-39.05253906 -1.62648437 -39.05253906 -1.62648437 -38.0859375 -2.265625 C-26.84436677 -8.62539808 -10.66228572 -6.13632342 0 0 Z " fill="#FECD09" transform="translate(153,187)"/>
<path d="M0 0 C10.1614843 3.87227918 16.07465989 10.13878339 20.64453125 19.8671875 C24.29587833 29.0817458 23.09259985 38.17502798 19.4296875 47.1796875 C19.1409375 47.83453125 18.8521875 48.489375 18.5546875 49.1640625 C15.5846875 49.6590625 15.5846875 49.6590625 12.5546875 50.1640625 C12.2865625 49.5453125 12.0184375 48.9265625 11.7421875 48.2890625 C10.59911902 45.8645392 10.59911902 45.8645392 7.5546875 44.1640625 C7.5546875 43.5040625 7.5546875 42.8440625 7.5546875 42.1640625 C6.99265625 42.09058594 6.430625 42.01710937 5.8515625 41.94140625 C2.71532421 40.87999227 1.11004092 39.08088584 -1.1953125 36.7265625 C-1.99453125 35.92347656 -2.79375 35.12039062 -3.6171875 34.29296875 C-5.4453125 32.1640625 -5.4453125 32.1640625 -5.4453125 30.1640625 C-8.44060539 31.16249346 -9.60371577 31.67790692 -11.4453125 34.1640625 C-11.31725796 38.00569868 -8.92542758 40.40837908 -6.4453125 43.1640625 C-5.23875 44.123125 -5.23875 44.123125 -4.0078125 45.1015625 C-1.03029871 47.49809799 1.14047049 50.20664667 3.5546875 53.1640625 C5.18426477 54.87400248 6.85992838 56.51772507 8.5546875 58.1640625 C7.5546875 61.1640625 7.5546875 61.1640625 5.4453125 62.296875 C4.13820313 62.78800781 4.13820313 62.78800781 2.8046875 63.2890625 C1.94359375 63.62164062 1.0825 63.95421875 0.1953125 64.296875 C-8.75208086 67.23522016 -16.79388999 66.71852291 -25.4453125 63.1640625 C-32.05255894 59.74872255 -36.58625792 55.49807305 -40.4453125 49.1640625 C-40.85910156 48.50921875 -41.27289063 47.854375 -41.69921875 47.1796875 C-45.80827582 39.56289878 -45.58495421 30.64339948 -43.85546875 22.328125 C-40.8239396 13.47103061 -34.31915806 6.28730527 -26.0078125 2.1015625 C-24.49531467 1.43644217 -22.97600163 0.78617623 -21.4453125 0.1640625 C-15.65605825 -2.73056462 -6.12154447 -1.48527269 0 0 Z " fill="#FDCD0C" transform="translate(183.4453125,102.8359375)"/>
<path d="M0 0 C1.32 0 2.64 0 4 0 C4.495 0.99 4.495 0.99 5 2 C6.70705974 2.97397968 6.70705974 2.97397968 8.78125 3.83984375 C9.54050781 4.18080078 10.29976563 4.52175781 11.08203125 4.87304688 C12.69257327 5.58204962 14.30455655 6.28778754 15.91796875 6.99023438 C16.67722656 7.33248047 17.43648438 7.67472656 18.21875 8.02734375 C19.2696582 8.48741821 19.2696582 8.48741821 20.34179688 8.95678711 C22 10 22 10 23 13 C20.15378158 15.24147917 17.28521656 17.03393357 14.0625 18.6875 C12.81146484 19.34298828 12.81146484 19.34298828 11.53515625 20.01171875 C8.82851229 21.06685114 6.87731627 21.19044848 4 21 C4 20.01 4 19.02 4 18 C8.455 15.525 8.455 15.525 13 13 C10.43833199 10.43833199 9.44696024 9.55445594 6.3125 8.3125 C5.219375 7.879375 4.12625 7.44625 3 7 C2.54109375 8.21558594 2.0821875 9.43117187 1.609375 10.68359375 C0.99039883 12.26854789 0.37056238 13.85316625 -0.25 15.4375 C-0.55035156 16.23994141 -0.85070312 17.04238281 -1.16015625 17.86914062 C-1.46308594 18.63291016 -1.76601563 19.39667969 -2.078125 20.18359375 C-2.35043945 20.89056396 -2.62275391 21.59753418 -2.90332031 22.32592773 C-4 24 -4 24 -6.12011719 24.73852539 C-6.74047852 24.82481201 -7.36083984 24.91109863 -8 25 C-8.33 23.68 -8.66 22.36 -9 21 C-10.32 21 -11.64 21 -13 21 C-13 20.34 -13 19.68 -13 19 C-13.825 18.9175 -14.65 18.835 -15.5 18.75 C-19.76753921 17.83552731 -23.19236894 16.07776822 -27 14 C-27 12.68 -27 11.36 -27 10 C-24.75692972 8.79749842 -22.5071209 7.6130838 -20.25 6.4375 C-19.29867187 5.92413086 -19.29867187 5.92413086 -18.328125 5.40039062 C-13.54904562 2.93617782 -13.54904562 2.93617782 -10.546875 3.28515625 C-10.03640625 3.52105469 -9.5259375 3.75695312 -9 4 C-9 4.99 -9 5.98 -9 7 C-11.97 8.65 -14.94 10.3 -18 12 C-14.68366796 14.48724903 -11.70626844 16.23109915 -8 18 C-7.50628906 16.78441406 -7.01257813 15.56882813 -6.50390625 14.31640625 C-5.85690291 12.7317169 -5.2097603 11.14708441 -4.5625 9.5625 C-4.23701172 8.76005859 -3.91152344 7.95761719 -3.57617188 7.13085938 C-3.26357422 6.36708984 -2.95097656 5.60332031 -2.62890625 4.81640625 C-2.34088135 4.10943604 -2.05285645 3.40246582 -1.75610352 2.67407227 C-1 1 -1 1 0 0 Z " fill="#E5E9F0" transform="translate(268,210)"/>
<path d="M0 0 C0.66 0.33 1.32 0.66 2 1 C1.67 1.33 1.34 1.66 1 2 C1.66 2.66 2.32 3.32 3 4 C2.01 4.33 1.02 4.66 0 5 C-0.66 5.66 -1.32 6.32 -2 7 C-2 6.34 -2 5.68 -2 5 C-2.99 5.99 -3.98 6.98 -5 8 C-4.01 8.66 -3.02 9.32 -2 10 C-2 10.66 -2 11.32 -2 12 C-2.99 12.66 -3.98 13.32 -5 14 C-3.35 14.66 -1.7 15.32 0 16 C0 15.01 0 14.02 0 13 C1.32 13 2.64 13 4 13 C4.33 11.35 4.66 9.7 5 8 C6.65 8 8.3 8 10 8 C10 7.01 10 6.02 10 5 C11.98 4.67 13.96 4.34 16 4 C12.32304233 7.82901231 8.45229464 11.13783389 4.25 14.375 C3.00497206 15.33693385 1.76018041 16.29917361 0.515625 17.26171875 C-0.08572266 17.72626465 -0.68707031 18.19081055 -1.30664062 18.66943359 C-2.79600509 19.83970988 -4.25248643 21.05158181 -5.703125 22.26953125 C-8.92069816 24.95631428 -11.1271457 26.79857208 -15.25 27.75 C-18.95644949 26.73915014 -20.57018312 24.91578025 -23 22 C-23.33 21.34 -23.66 20.68 -24 20 C-19.65498599 15.37238345 -14.78396402 11.60138199 -9.75 7.75 C-8.11939949 6.49530117 -6.48917062 5.24011917 -4.859375 3.984375 C-3.78381348 3.16018066 -3.78381348 3.16018066 -2.68652344 2.31933594 C-1.06670411 1.10712274 -1.06670411 1.10712274 0 0 Z " fill="#FBCD0F" transform="translate(319,172)"/>
<path d="M0 0 C1.98 0 3.96 0 6 0 C5.01 0.495 5.01 0.495 4 1 C4.185625 2.299375 4.37125 3.59875 4.5625 4.9375 C4.87890625 7.15234375 4.87890625 7.15234375 5 9 C4.67 9.33 4.34 9.66 4 10 C3.90126184 11.99799572 3.87028201 13.99957158 3.875 16 C3.87242187 17.093125 3.86984375 18.18625 3.8671875 19.3125 C3.69452245 21.91830354 3.69452245 21.91830354 5 23 C5.23363881 24.84891946 5.41303635 26.70488031 5.5625 28.5625 C5.64628906 29.57441406 5.73007813 30.58632812 5.81640625 31.62890625 C5.87699219 32.41136719 5.93757812 33.19382813 6 34 C3 32 3 32 2 29 C1.01 29.33 0.02 29.66 -1 30 C-1 28.68 -1 27.36 -1 26 C-1.66 26 -2.32 26 -3 26 C-5.3992233 21.35150485 -5.19957409 17.08913926 -5 12 C-4.34 12 -3.68 12 -3 12 C-3 10.35 -3 8.7 -3 7 C-1.35 6.67 0.3 6.34 2 6 C1.34 5.01 0.68 4.02 0 3 C0 2.01 0 1.02 0 0 Z " fill="#F0CC51" transform="translate(228,206)"/>
<path d="M0 0 C3.58588324 0.38766305 6.69987921 1.58566252 10 3 C9.66226563 3.51046875 9.32453125 4.0209375 8.9765625 4.546875 C4.04653093 12.58311144 2.84780183 20.66056658 3 30 C2.34 29.67 1.68 29.34 1 29 C0.97313447 27.02090602 0.95366625 25.04171029 0.9375 23.0625 C0.92589844 21.96035156 0.91429687 20.85820312 0.90234375 19.72265625 C1 17 1 17 2 16 C2.07148199 14.64756083 2.08399454 13.29165633 2.0625 11.9375 C2.041875 10.638125 2.02125 9.33875 2 8 C0.68 7.67 -0.64 7.34 -2 7 C-1.2265625 8.175625 -1.2265625 8.175625 -0.4375 9.375 C0.036875 10.24125 0.51125 11.1075 1 12 C0.67 12.66 0.34 13.32 0 14 C-0.99 14.33 -1.98 14.66 -3 15 C-3.66 14.67 -4.32 14.34 -5 14 C-5 15.65 -5 17.3 -5 19 C-21.83 19 -38.66 19 -56 19 C-56 18.67 -56 18.34 -56 18 C-39.5 18 -23 18 -6 18 C-5.67 15.36 -5.34 12.72 -5 10 C-3.94837352 6.21414466 -2.8256184 2.8256184 0 0 Z " fill="#F2CE5B" transform="translate(230,199)"/>
<path d="M0 0 C0 0.66 0 1.32 0 2 C0.66 2.66 1.32 3.32 2 4 C2.33 4.66 2.66 5.32 3 6 C5.3140622 6.73075648 7.64828869 7.40138258 10 8 C10 9.32 10 10.64 10 12 C8.35 12 6.7 12 5 12 C4.67 11.34 4.34 10.68 4 10 C2.3523962 9.28752268 0.68236471 8.62599617 -1 8 C-1.639375 7.608125 -2.27875 7.21625 -2.9375 6.8125 C-5.83277045 5.67193891 -7.99854322 6.41275846 -11 7 C-11.66 6.67 -12.32 6.34 -13 6 C-16.53018797 5.84651357 -19.61527952 5.95854754 -23 7 C-23 3 -23 3 -21.6875 0.8125 C-15.195456 -3.56585526 -7.08395073 -2.27221061 0 0 Z " fill="#F3D057" transform="translate(281,182)"/>
<path d="M0 0 C3.18531873 1.26475891 4.53168985 3.11567947 6.109375 6.11328125 C8.14185143 9.16199589 10.29666119 10.65652357 13.3359375 12.625 C14.859375 13.73828125 14.859375 13.73828125 15.859375 15.73828125 C16.849375 16.06828125 17.839375 16.39828125 18.859375 16.73828125 C19.56149394 18.39032581 20.22908913 20.05751894 20.859375 21.73828125 C21.519375 22.06828125 22.179375 22.39828125 22.859375 22.73828125 C21.539375 22.73828125 20.219375 22.73828125 18.859375 22.73828125 C18.59125 22.11953125 18.323125 21.50078125 18.046875 20.86328125 C16.90380652 18.43875795 16.90380652 18.43875795 13.859375 16.73828125 C13.859375 16.07828125 13.859375 15.41828125 13.859375 14.73828125 C13.29734375 14.66480469 12.7353125 14.59132812 12.15625 14.515625 C9.02001171 13.45421102 7.41472842 11.65510459 5.109375 9.30078125 C4.31015625 8.49769531 3.5109375 7.69460937 2.6875 6.8671875 C0.859375 4.73828125 0.859375 4.73828125 0.859375 2.73828125 C-2.13591789 3.73671221 -3.29902827 4.25212567 -5.140625 6.73828125 C-5.01257046 10.57991743 -2.62074008 12.98259783 -0.140625 15.73828125 C0.66375 16.37765625 1.468125 17.01703125 2.296875 17.67578125 C5.27438879 20.07231674 7.44515799 22.78086542 9.859375 25.73828125 C11.48895227 27.44822123 13.16461588 29.09194382 14.859375 30.73828125 C14.529375 31.72828125 14.199375 32.71828125 13.859375 33.73828125 C13.199375 33.73828125 12.539375 33.73828125 11.859375 33.73828125 C11.48167969 32.866875 11.10398438 31.99546875 10.71484375 31.09765625 C8.68486683 27.42232962 6.20688869 24.81573917 3.171875 21.98828125 C1.34942751 20.27384767 -0.40373045 18.5430002 -2.140625 16.73828125 C-2.140625 16.07828125 -2.140625 15.41828125 -2.140625 14.73828125 C-3.130625 14.73828125 -4.120625 14.73828125 -5.140625 14.73828125 C-5.140625 14.07828125 -5.140625 13.41828125 -5.140625 12.73828125 C-6.130625 12.40828125 -7.120625 12.07828125 -8.140625 11.73828125 C-9.078125 9.11328125 -9.078125 9.11328125 -9.140625 5.73828125 C-6.80639929 2.68219961 -4.05930627 -0.49630204 0 0 Z " fill="#F9CD28" transform="translate(177.140625,130.26171875)"/>
<path d="M0 0 C0.51046875 0.23589844 1.0209375 0.47179687 1.546875 0.71484375 C1.546875 1.70484375 1.546875 2.69484375 1.546875 3.71484375 C-1.423125 5.36484375 -4.393125 7.01484375 -7.453125 8.71484375 C-4.48802901 10.93866574 -1.63714117 12.85750098 1.546875 14.71484375 C1.216875 15.70484375 0.886875 16.69484375 0.546875 17.71484375 C-0.443125 17.71484375 -1.433125 17.71484375 -2.453125 17.71484375 C-2.453125 17.05484375 -2.453125 16.39484375 -2.453125 15.71484375 C-3.278125 15.63234375 -4.103125 15.54984375 -4.953125 15.46484375 C-9.22066421 14.55037106 -12.64549394 12.79261197 -16.453125 10.71484375 C-16.453125 9.39484375 -16.453125 8.07484375 -16.453125 6.71484375 C-14.21005472 5.51234217 -11.9602459 4.32792755 -9.703125 3.15234375 C-8.75179687 2.63897461 -8.75179687 2.63897461 -7.78125 2.11523438 C-3.00217062 -0.34897843 -3.00217062 -0.34897843 0 0 Z " fill="#EDF0F6" transform="translate(257.453125,213.28515625)"/>
<path d="M0 0 C3.57330471 0.61256652 6.64374545 1.65749818 10 3 C10.86625 3.144375 11.7325 3.28875 12.625 3.4375 C15.30347452 4.07187554 16.27276393 4.90913529 18 7 C14.37355427 11.45063794 9.30160805 14.00679143 4 16 C1.18359375 16.140625 1.18359375 16.140625 -1 16 C-1 15.01 -1 14.02 -1 13 C1.97 11.35 4.94 9.7 8 8 C5.07175348 5.07175348 2.7020007 3.72760033 -1 2 C-0.67 1.34 -0.34 0.68 0 0 Z " fill="#F5F7FB" transform="translate(273,215)"/>
<path d="M0 0 C0.66 0.33 1.32 0.66 2 1 C-1.85270362 6.3345127 -5.2141641 10.75428718 -11 14 C-11.495 12.515 -11.495 12.515 -12 11 C-16.92157427 10.03498544 -19.44511253 10.12286038 -24 12 C-26.49536133 12.41064453 -26.49536133 12.41064453 -29.08203125 12.6328125 C-30.01337891 12.71660156 -30.94472656 12.80039062 -31.90429688 12.88671875 C-32.86400391 12.96535156 -33.82371094 13.04398437 -34.8125 13.125 C-35.79154297 13.21136719 -36.77058594 13.29773438 -37.77929688 13.38671875 C-40.18568978 13.59801179 -42.59246612 13.80220763 -45 14 C-45.33 12.68 -45.66 11.36 -46 10 C-45.01 10.165 -44.02 10.33 -43 10.5 C-30.20102747 12.27335162 -22.22799267 9.7144973 -12 2 C-11.34 1.67 -10.68 1.34 -10 1 C-10.33 3.31 -10.66 5.62 -11 8 C-8.525 8.495 -8.525 8.495 -6 9 C-6 8.34 -6 7.68 -6 7 C-5.34 7 -4.68 7 -4 7 C-3.71125 6.21625 -3.4225 5.4325 -3.125 4.625 C-2 2 -2 2 0 0 Z " fill="#F1D164" transform="translate(301,244)"/>
<path d="M0 0 C0 0.66 0 1.32 0 2 C0.66 2 1.32 2 2 2 C2 6 2 6 -0.4375 8.625 C-1.283125 9.40875 -2.12875 10.1925 -3 11 C-3.33 11.66 -3.66 12.32 -4 13 C-4.66 13 -5.32 13 -6 13 C-6 13.66 -6 14.32 -6 15 C-7.65 14.67 -9.3 14.34 -11 14 C-11.73828125 12.29296875 -11.73828125 12.29296875 -12 10 C-10.41796875 7.67578125 -10.41796875 7.67578125 -8.1875 5.3125 C-7.45917969 4.52488281 -6.73085938 3.73726562 -5.98046875 2.92578125 C-3.87894458 0.88228733 -2.93818297 0 0 0 Z " fill="#F2D052" transform="translate(301,238)"/>
<path d="M0 0 C0.33 0.66 0.66 1.32 1 2 C0.67 2.66 0.34 3.32 0 4 C0.66 4 1.32 4 2 4 C2.33 3.01 2.66 2.02 3 1 C3.66 1.33 4.32 1.66 5 2 C5 2.99 5 3.98 5 5 C4.34 5 3.68 5 3 5 C3 6.32 3 7.64 3 9 C2.030625 9.2475 1.06125 9.495 0.0625 9.75 C-0.948125 10.1625 -1.95875 10.575 -3 11 C-3.96877057 13.03243548 -3.96877057 13.03243548 -4 15 C-4.66 15 -5.32 15 -6 15 C-6 21.93 -6 28.86 -6 36 C-6.33 36 -6.66 36 -7 36 C-9.57885953 24.80397568 -8.59048434 13.98682242 -2.84375 3.98828125 C-1.95133689 2.62097689 -0.98528023 1.30197744 0 0 Z " fill="#F3CE33" transform="translate(99,198)"/>
<path d="M0 0 C0.495 0.99 0.495 0.99 1 2 C-1.31 2 -3.62 2 -6 2 C-6 1.01 -6 0.02 -6 -1 C-6.66 -1 -7.32 -1 -8 -1 C-8 -1.66 -8 -2.32 -8 -3 C-9.98 -3 -11.96 -3 -14 -3 C-14 -3.66 -14 -4.32 -14 -5 C-22.89252296 -5.26197285 -31.24996282 -4.6039348 -40 -3 C-40.33 -2.01 -40.66 -1.02 -41 0 C-42.65 0 -44.3 0 -46 0 C-45.67 0.99 -45.34 1.98 -45 3 C-46.97746603 3.73080266 -48.98072489 4.39421747 -51 5 C-51.66 4.67 -52.32 4.34 -53 4 C-37.54073521 -8.95469117 -17.30056691 -10.90459975 0 0 Z " fill="#E3C02F" transform="translate(290,324)"/>
<path d="M0 0 C0 0.99 0 1.98 0 3 C-0.66 3 -1.32 3 -2 3 C-2.33 4.32 -2.66 5.64 -3 7 C-3.99 7 -4.98 7 -6 7 C-9.56592619 7.16417032 -9.56592619 7.16417032 -13 8 C-14.08664524 9.84442515 -14.08664524 9.84442515 -15 12 C-15.93746078 13.26126339 -16.91798841 14.49158437 -17.9375 15.6875 C-18.44152344 16.28949219 -18.94554687 16.89148438 -19.46484375 17.51171875 C-21 19 -21 19 -24 20 C-21.84215715 12.32766987 -15.55058822 6.81618159 -8.859375 2.96484375 C-3.14574899 0 -3.14574899 0 0 0 Z " fill="#F3CC23" transform="translate(166,102)"/>
<path d="M0 0 C2.2896727 0.88632491 3.76962589 1.74959336 5.4375 3.5625 C7.49199044 5.45263121 9.27994277 5.6324247 12 6 C9.20458537 8.79541463 6.82689618 10.20822838 3 11 C3 10.34 3 9.68 3 9 C1.824375 8.7834375 1.824375 8.7834375 0.625 8.5625 C-2 8 -2 8 -4 7 C-3.39816251 4.97954558 -2.72693904 2.97888961 -2 1 C-1.34 0.67 -0.68 0.34 0 0 Z " fill="#F3CF52" transform="translate(294,193)"/>
<path d="M0 0 C0.66 0 1.32 0 2 0 C2 3.96 2 7.92 2 12 C2.66 12 3.32 12 4 12 C3.47731534 14.76276177 2.89130413 17.3260876 2 20 C1.91821886 21.70016844 1.89250499 23.40336297 1.90234375 25.10546875 C1.90556641 26.08837891 1.90878906 27.07128906 1.91210938 28.08398438 C1.92048828 29.10814453 1.92886719 30.13230469 1.9375 31.1875 C1.94201172 32.22326172 1.94652344 33.25902344 1.95117188 34.32617188 C1.9629599 36.88417266 1.97941485 39.44205733 2 42 C1.34 42 0.68 42 0 42 C0 28.14 0 14.28 0 0 Z " fill="#EED97F" transform="translate(259,275)"/>
<path d="M0 0 C7.56075567 6.67125501 12.04911378 14.9455473 13 25 C13.27533055 30.09733588 13.32482317 35.03191312 12 40 C11.67 40 11.34 40 11 40 C11.03480469 38.71416016 11.03480469 38.71416016 11.0703125 37.40234375 C11.16973214 31.1033992 10.94734041 25.96373 9 20 C8.875 16.5625 8.875 16.5625 9 14 C8.34 14 7.68 14 7 14 C7 12.68 7 11.36 7 10 C6.34 10 5.68 10 5 10 C1.47885604 7.50585636 0.98696333 4.02377359 0 0 Z " fill="#EBC631" transform="translate(160,193)"/>
<path d="M0 0 C0.33 0 0.66 0 1 0 C1.495 3.465 1.495 3.465 2 7 C1.01 7.33 0.02 7.66 -1 8 C-1 9.65 -1 11.3 -1 13 C-17.83 13 -34.66 13 -52 13 C-52 12.67 -52 12.34 -52 12 C-35.5 12 -19 12 -2 12 C-1.67 9.36 -1.34 6.72 -1 4 C-0.69830934 2.65915264 -0.38482319 1.3193938 0 0 Z " fill="#E7D290" transform="translate(226,205)"/>
<path d="M0 0 C2.64 0 5.28 0 8 0 C8.28875 1.0725 8.5775 2.145 8.875 3.25 C9.72820109 6.09400364 10.5636503 8.43508983 12 11 C9.69 10.67 7.38 10.34 5 10 C4.67 9.01 4.34 8.02 4 7 C3.505 6.525625 3.01 6.05125 2.5 5.5625 C0.75814029 3.74806281 0.42144987 2.44440923 0 0 Z " fill="#F2CF53" transform="translate(230,242)"/>
<path d="M0 0 C-11.23046875 8.984375 -11.23046875 8.984375 -13.18896484 10.54492188 C-14.76184341 11.80865284 -16.31448283 13.09749454 -17.86328125 14.390625 C-20 16 -20 16 -22 16 C-22 14.02 -22 12.04 -22 10 C-19.03 10.495 -19.03 10.495 -16 11 C-16 10.01 -16 9.02 -16 8 C-14.68 8 -13.36 8 -12 8 C-11.67 6.35 -11.34 4.7 -11 3 C-9.35 3 -7.7 3 -6 3 C-6 2.01 -6 1.02 -6 0 C-3.50907189 -1.24546405 -2.58919267 -0.7767578 0 0 Z " fill="#F4D02E" transform="translate(335,177)"/>
<path d="M0 0 C0.66 0.33 1.32 0.66 2 1 C1.67 1.33 1.34 1.66 1 2 C1.66 2.66 2.32 3.32 3 4 C2.01 4.33 1.02 4.66 0 5 C-0.66 5.66 -1.32 6.32 -2 7 C-2 6.34 -2 5.68 -2 5 C-4.2477975 7.05233685 -5.0022242 8.00667261 -6 11 C-7.11375 11.12375 -7.11375 11.12375 -8.25 11.25 C-11.11886662 11.78810733 -11.11886662 11.78810733 -13 14 C-15.32825843 16.32825843 -16.78406045 16.64267338 -20 17 C-16.18657854 13.01191802 -12.11889321 9.6127788 -7.75 6.25 C-3.73746143 3.2806021 -3.73746143 3.2806021 0 0 Z " fill="#F1CC2F" transform="translate(319,172)"/>
<path d="M0 0 C1.65 0.33 3.3 0.66 5 1 C4.49339844 1.76570312 4.49339844 1.76570312 3.9765625 2.546875 C-0.95346907 10.58311144 -2.15219817 18.66056658 -2 28 C-2.66 27.67 -3.32 27.34 -4 27 C-4.02686553 25.02090602 -4.04633375 23.04171029 -4.0625 21.0625 C-4.07410156 19.96035156 -4.08570313 18.85820312 -4.09765625 17.72265625 C-4 15 -4 15 -3 14 C-2.92851801 12.64756083 -2.91600546 11.29165633 -2.9375 9.9375 C-2.958125 8.638125 -2.97875 7.33875 -3 6 C-1.68 5.67 -0.36 5.34 1 5 C0.67 3.35 0.34 1.7 0 0 Z " fill="#EDD673" transform="translate(235,201)"/>
<path d="M0 0 C2 3 2 3 2 5 C2.66 5.33 3.32 5.66 4 6 C3.67 6.66 3.34 7.32 3 8 C5.31 8 7.62 8 10 8 C10 11.63 10 15.26 10 19 C9.67 19 9.34 19 9 19 C9 16.03 9 13.06 9 10 C7.700625 9.773125 6.40125 9.54625 5.0625 9.3125 C-0.20738754 8.16650858 -4.44662857 5.82029153 -9 3 C-7.68 2.67 -6.36 2.34 -5 2 C-5 2.66 -5 3.32 -5 4 C-1.72226496 3.24849977 -1.72226496 3.24849977 0 0 Z " fill="#EED578" transform="translate(250,255)"/>
<path d="M0 0 C0.66 0.66 1.32 1.32 2 2 C3.32 2 4.64 2 6 2 C8.359375 3.09375 8.359375 3.09375 10.75 4.5 C11.94882813 5.19609375 11.94882813 5.19609375 13.171875 5.90625 C13.77515625 6.2671875 14.3784375 6.628125 15 7 C14.67 7.99 14.34 8.98 14 10 C13.01 10 12.02 10 11 10 C11 9.34 11 8.68 11 8 C10.154375 7.896875 9.30875 7.79375 8.4375 7.6875 C4.58557299 6.9171146 1.55924969 5.63725486 -2 4 C-1.34 2.68 -0.68 1.36 0 0 Z " fill="#F7FBFC" transform="translate(244,221)"/>
<path d="M0 0 C0.33 0 0.66 0 1 0 C1.19335938 1.13179688 1.38671875 2.26359375 1.5859375 3.4296875 C1.84854286 4.91153202 2.11158648 6.39329892 2.375 7.875 C2.50132812 8.62136719 2.62765625 9.36773437 2.7578125 10.13671875 C3.45268694 14.50990532 3.45268694 14.50990532 6 18 C6 18.99 6 19.98 6 21 C7.98 20.67 9.96 20.34 12 20 C11.67 22.64 11.34 25.28 11 28 C4.53058594 23.50735135 1.54247097 17.5838156 0 10 C-0.14698357 6.65857341 -0.12103078 3.34179421 0 0 Z " fill="#F1CE3B" transform="translate(225,358)"/>
<path d="M0 0 C1.5778125 0.495 1.5778125 0.495 3.1875 1 C6.38873357 1.83966782 8.7411008 2.19750904 12 2 C8.83047153 5.26008643 5.60062011 8.22237877 2 11 C1.855625 10.360625 1.71125 9.72125 1.5625 9.0625 C1.18992819 7.02454854 1.18992819 7.02454854 0 6 C-0.04080783 4.00041636 -0.04254356 1.99954746 0 0 Z " fill="#F1D264" transform="translate(238,191)"/>
<path d="M0 0 C3.3 0.33 6.6 0.66 10 1 C7.49959692 3.50040308 5.66641309 3.78364454 2.25 4.625 C1.22390625 4.88539063 0.1978125 5.14578125 -0.859375 5.4140625 C-3.98495856 5.99719376 -6.82889349 6.10443764 -10 6 C-10 5.34 -10 4.68 -10 4 C-5.545 3.505 -5.545 3.505 -1 3 C-0.67 2.01 -0.34 1.02 0 0 Z " fill="#F2D32F" transform="translate(274,394)"/>
<path d="M0 0 C3.57330471 0.61256652 6.64374545 1.65749818 10 3 C10.9075 3.165 11.815 3.33 12.75 3.5 C13.86375 3.7475 13.86375 3.7475 15 4 C15.33 4.66 15.66 5.32 16 6 C15.01 6 14.02 6 13 6 C13 6.66 13 7.32 13 8 C9.2397015 7.41892368 6.46964968 6.34800504 3.1875 4.4375 C2.39730469 3.98246094 1.60710937 3.52742187 0.79296875 3.05859375 C0.20128906 2.70925781 -0.39039063 2.35992187 -1 2 C-0.67 1.34 -0.34 0.68 0 0 Z " fill="#F0F3F8" transform="translate(273,215)"/>
<path d="M0 0 C10.93987409 -0.5469937 20.22417154 -0.76075606 30 5 C30.66 5.66 31.32 6.32 32 7 C29.03 7 26.06 7 23 7 C23 5.68 23 4.36 23 3 C18.0399662 2.05711817 13.15485426 1.69751789 8.125 1.4375 C7.34125 1.39431641 6.5575 1.35113281 5.75 1.30664062 C3.83349351 1.20146649 1.91676667 1.10032075 0 1 C0 0.67 0 0.34 0 0 Z " fill="#E9CD45" transform="translate(123,182)"/>
<path d="M0 0 C12.75699077 -0.61977283 22.01213644 1.16310712 33 8 C31.68 8.33 30.36 8.66 29 9 C29 8.34 29 7.68 29 7 C28.4225 6.87625 27.845 6.7525 27.25 6.625 C25 6 25 6 23.15625 5 C20.77371879 3.89505799 18.85696748 3.60502654 16.25 3.375 C15.45078125 3.30023438 14.6515625 3.22546875 13.828125 3.1484375 C13.22484375 3.09945312 12.6215625 3.05046875 12 3 C12 2.34 12 1.68 12 1 C8.04 1 4.08 1 0 1 C0 0.67 0 0.34 0 0 Z " fill="#F3D145" transform="translate(360,100)"/>
<path d="M0 0 C5.72957609 2.46094127 9.77926395 7.45237694 12.4375 13 C12.623125 13.66 12.80875 14.32 13 15 C10.69 15 8.38 15 6 15 C6 14.34 6 13.68 6 13 C5.01 12.67 4.02 12.34 3 12 C3.33 11.34 3.66 10.68 4 10 C4.66 10 5.32 10 6 10 C6 10.66 6 11.32 6 12 C6.66 11.67 7.32 11.34 8 11 C8 10.34 8 9.68 8 9 C6.71323254 7.78216651 5.37036477 6.6229378 4 5.5 C2.62963523 4.3770622 1.28676746 3.21783349 0 2 C0 1.34 0 0.68 0 0 Z " fill="#F9CC20" transform="translate(190,107)"/>
<path d="M0 0 C0.33 0.66 0.66 1.32 1 2 C1.66 2 2.32 2 3 2 C3 2.66 3 3.32 3 4 C2.34 4 1.68 4 1 4 C0.67 5.65 0.34 7.3 0 9 C-0.99 9.33 -1.98 9.66 -3 10 C-2.67 8.68 -2.34 7.36 -2 6 C-2.66 6 -3.32 6 -4 6 C-4 6.66 -4 7.32 -4 8 C-5.32 8.33 -6.64 8.66 -8 9 C-6.4169423 4.7257442 -3.49431596 2.73468206 0 0 Z " fill="#F6D025" transform="translate(344,107)"/>
<path d="M0 0 C0.33 0.99 0.66 1.98 1 3 C1.86625 2.773125 2.7325 2.54625 3.625 2.3125 C7.68338409 1.9367237 9.55166676 2.94742069 13 5 C13 5.66 13 6.32 13 7 C6.37822074 6.69343615 1.77874846 5.25711277 -4 2 C-2.68 1.34 -1.36 0.68 0 0 Z " fill="#F7CC2A" transform="translate(115,256)"/>
<path d="M0 0 C1.98 0 3.96 0 6 0 C6 0.66 6 1.32 6 2 C6.99 1.34 7.98 0.68 9 0 C9.99 0.33 10.98 0.66 12 1 C12 1.66 12 2.32 12 3 C13.98 3.66 15.96 4.32 18 5 C17.67 5.66 17.34 6.32 17 7 C11.01448228 5.49829538 5.38744379 4.05773837 0 1 C0 0.67 0 0.34 0 0 Z " fill="#F2CE2A" transform="translate(244,393)"/>
<path d="M0 0 C0.66 0.33 1.32 0.66 2 1 C-2.27498066 5.95140165 -8.80419159 5.85082287 -14.9921875 6.34375 C-18.65918799 6.60592583 -22.32833282 6.81396886 -26 7 C-26.33 5.68 -26.66 4.36 -27 3 C-25.515 3.2475 -25.515 3.2475 -24 3.5 C-15.83320722 4.63154358 -7.05862766 4.70575177 0 0 Z " fill="#ECD680" transform="translate(282,251)"/>
<path d="M0 0 C-0.66 0.66 -1.32 1.32 -2 2 C-2.94875 1.814375 -3.8975 1.62875 -4.875 1.4375 C-9.62844346 0.54497581 -13.7767207 2.06624264 -18.328125 3.40625 C-21 4 -21 4 -24 3 C-16.16762026 -2.22158649 -8.76775344 -3.34009655 0 0 Z " fill="#F0D77B" transform="translate(274,189)"/>
<path d="M0 0 C3.14906415 1.41602213 5.49523672 3.13735082 8.0625 5.4375 C8.73410156 6.03433594 9.40570313 6.63117188 10.09765625 7.24609375 C12 9 12 9 13.55859375 10.66015625 C15.07486927 12.25510965 15.07486927 12.25510965 18 13 C18.70211894 14.65204456 19.36971413 16.31923769 20 18 C20.66 18.33 21.32 18.66 22 19 C20.68 19 19.36 19 18 19 C17.731875 18.38125 17.46375 17.7625 17.1875 17.125 C16.04443152 14.7004767 16.04443152 14.7004767 13 13 C13 12.34 13 11.68 13 11 C12.43796875 10.9278125 11.8759375 10.855625 11.296875 10.78125 C8.147544 9.71004898 6.55205659 7.8772872 4.25 5.5 C3.45078125 4.6853125 2.6515625 3.870625 1.828125 3.03125 C0 1 0 1 0 0 Z " fill="#F7CF37" transform="translate(178,134)"/>
<path d="M0 0 C5.09252528 2.39648248 8.1331085 6.27325801 11 11 C11.671875 13.25390625 11.671875 13.25390625 12 15 C11.34 15 10.68 15 10 15 C9.67 14.34 9.34 13.68 9 13 C6.97536745 12.34786708 6.97536745 12.34786708 5 12 C5.33 10.35 5.66 8.7 6 7 C5.34 7 4.68 7 4 7 C4 6.01 4 5.02 4 4 C3.01 4 2.02 4 1 4 C0.67 2.68 0.34 1.36 0 0 Z " fill="#F1CB2F" transform="translate(291,326)"/>
<path d="M0 0 C2.91180862 4.36771293 3.12438648 7.55153591 3.0625 12.75 C3.05347656 13.73484375 3.04445312 14.7196875 3.03515625 15.734375 C3.02355469 16.48203125 3.01195312 17.2296875 3 18 C2.67 18 2.34 18 2 18 C1.9175 17.21625 1.835 16.4325 1.75 15.625 C1.27193661 12.85250896 1.27193661 12.85250896 -1.0625 11.6875 C-1.701875 11.460625 -2.34125 11.23375 -3 11 C-2.67 10.01 -2.34 9.02 -2 8 C-1.34 8 -0.68 8 0 8 C0 5.36 0 2.72 0 0 Z " fill="#F7CE2C" transform="translate(203,122)"/>
<path d="M0 0 C-2.64738916 1.4606285 -3.89448334 2 -7 2 C-7.33 2.99 -7.66 3.98 -8 5 C-9.65 5 -11.3 5 -13 5 C-12.67 5.99 -12.34 6.98 -12 8 C-13.97746603 8.73080266 -15.98072489 9.39421747 -18 10 C-18.66 9.67 -19.32 9.34 -20 9 C-5.79958246 -2.89979123 -5.79958246 -2.89979123 0 0 Z " fill="#EFD13A" transform="translate(257,319)"/>
<path d="M0 0 C2.2896727 0.88632491 3.76962589 1.74959336 5.4375 3.5625 C7.49199044 5.45263121 9.27994277 5.6324247 12 6 C9.82711465 8.17288535 8.98970481 8.64827002 6 9 C3.75 8.0625 3.75 8.0625 2 7 C2.33 6.01 2.66 5.02 3 4 C1.68 4 0.36 4 -1 4 C-1.33 3.01 -1.66 2.02 -2 1 C-1.34 0.67 -0.68 0.34 0 0 Z " fill="#F3CE48" transform="translate(294,193)"/>
<path d="M0 0 C0.703125 1.77734375 0.703125 1.77734375 1 4 C-0.328125 5.81640625 -0.328125 5.81640625 -2.25 7.5625 C-2.87390625 8.14128906 -3.4978125 8.72007813 -4.140625 9.31640625 C-4.75421875 9.87199219 -5.3678125 10.42757812 -6 11 C-7.00564639 11.99432154 -8.00768606 12.99237257 -9 14 C-9.33 13.34 -9.66 12.68 -10 12 C-3.84965831 3.55353075 -3.84965831 3.55353075 0 0 Z " fill="#EDCF32" transform="translate(152,108)"/>
<path d="M0 0 C1.05703507 3.17815212 0.97696236 4.76748387 -0.375 7.8125 C-1.92455037 11.58378012 -2.57837964 14.95244451 -3 19 C-3.66 19 -4.32 19 -5 19 C-5.58829594 12.38167071 -3.60608013 7.04945508 -1 1 C-0.67 0.67 -0.34 0.34 0 0 Z " fill="#F0CA3D" transform="translate(230,337)"/>
<path d="M0 0 C1.31625194 2.63250388 0.74813658 3.80179056 0.0625 6.625 C-0.13214844 7.44226563 -0.32679688 8.25953125 -0.52734375 9.1015625 C-0.76130859 10.04128906 -0.76130859 10.04128906 -1 11 C-2.65 11.33 -4.3 11.66 -6 12 C-5.54300722 6.97307937 -3.00758252 3.85103739 0 0 Z " fill="#F1CF2D" transform="translate(335,116)"/>
<path d="M0 0 C6.435 2.97 6.435 2.97 13 6 C12.34 6.66 11.68 7.32 11 8 C10.13375 7.484375 9.2675 6.96875 8.375 6.4375 C4.60596507 4.83217031 2.89114901 4.98088955 -1 6 C-1.33 5.01 -1.66 4.02 -2 3 C-1.34 3 -0.68 3 0 3 C0 2.01 0 1.02 0 0 Z " fill="#DFE3EE" transform="translate(271,211)"/>
<path d="M0 0 C0 0.33 0 0.66 0 1 C-0.93972656 1.09087891 -0.93972656 1.09087891 -1.8984375 1.18359375 C-2.71570313 1.26738281 -3.53296875 1.35117188 -4.375 1.4375 C-5.18710937 1.51871094 -5.99921875 1.59992188 -6.8359375 1.68359375 C-9.04272805 1.89090114 -9.04272805 1.89090114 -11 3 C-12.54023996 3.06950541 -14.08334988 3.08452357 -15.625 3.0625 C-16.85089844 3.04896484 -16.85089844 3.04896484 -18.1015625 3.03515625 C-19.04128906 3.01775391 -19.04128906 3.01775391 -20 3 C-20.33 3.66 -20.66 4.32 -21 5 C-21.66 4.34 -22.32 3.68 -23 3 C-15.22270481 -0.21819111 -8.35740901 -0.32098157 0 0 Z " fill="#F2DC8A" transform="translate(271,180)"/>
<path d="M0 0 C0.33 0 0.66 0 1 0 C1 5.28 1 10.56 1 16 C0.34 16 -0.32 16 -1 16 C-1.33 16.99 -1.66 17.98 -2 19 C-2.22262303 12.2718373 -1.95021536 6.46008837 0 0 Z " fill="#F6DA39" transform="translate(328,128)"/>
<path d="M0 0 C0.99 0.33 1.98 0.66 3 1 C2.09066991 2.27609323 1.17217147 3.54565553 0.25 4.8125 C-0.26046875 5.52019531 -0.7709375 6.22789062 -1.296875 6.95703125 C-3.02482358 9.02977691 -4.78526476 10.47375854 -7 12 C-7.33 10.68 -7.66 9.36 -8 8 C-7.34 7.67 -6.68 7.34 -6 7 C-5.67 6.34 -5.34 5.68 -5 5 C-4.01 4.67 -3.02 4.34 -2 4 C-0.79117904 1.99983534 -0.79117904 1.99983534 0 0 Z " fill="#F2CC31" transform="translate(300,377)"/>
<path d="M0 0 C-2.62652025 3.59930552 -4.93963643 6.07666989 -9 8 C-9.66 7.67 -10.32 7.34 -11 7 C-9.68 5.68 -8.36 4.36 -7 3 C-6.34 3.33 -5.68 3.66 -5 4 C-5.33 2.68 -5.66 1.36 -6 0 C-3.50907189 -1.24546405 -2.58919267 -0.7767578 0 0 Z " fill="#F3D12D" transform="translate(161,251)"/>
<path d="M0 0 C0.66 0.33 1.32 0.66 2 1 C-1.85270362 6.3345127 -5.2141641 10.75428718 -11 14 C-11 13.01 -11 12.02 -11 11 C-10.01 11 -9.02 11 -8 11 C-8 10.34 -8 9.68 -8 9 C-7.34 9 -6.68 9 -6 9 C-6 8.34 -6 7.68 -6 7 C-5.34 7 -4.68 7 -4 7 C-3.71125 6.21625 -3.4225 5.4325 -3.125 4.625 C-2 2 -2 2 0 0 Z " fill="#F7E27E" transform="translate(301,244)"/>
<path d="M0 0 C0.66 0 1.32 0 2 0 C2 1.65 2 3.3 2 5 C2.66 5 3.32 5 4 5 C4.66 6.98 5.32 8.96 6 11 C6.66 11 7.32 11 8 11 C7.67 12.32 7.34 13.64 7 15 C0.29612756 5.77448747 0.29612756 5.77448747 0 0 Z " fill="#F0CD3C" transform="translate(93,234)"/>
<path d="M0 0 C0.33 0 0.66 0 1 0 C1.223293 2.06093408 1.42802887 4.1238839 1.625 6.1875 C1.74101562 7.33605469 1.85703125 8.48460937 1.9765625 9.66796875 C2.00023426 13.03330416 1.47419799 15.01221706 0 18 C-1.32060179 14.03819462 -1.07238185 10.11772297 -1 6 C-1 4.68 -1 3.36 -1 2 C-0.67 1.34 -0.34 0.68 0 0 Z " fill="#F8CD1D" transform="translate(170,221)"/>
<path d="M0 0 C0.88336837 2.4667645 1.1312406 3.63859372 0.22265625 6.140625 C-0.16019531 6.83671875 -0.54304688 7.5328125 -0.9375 8.25 C-1.31777344 8.95640625 -1.69804687 9.6628125 -2.08984375 10.390625 C-2.39019531 10.92171875 -2.69054687 11.4528125 -3 12 C-3.33 12 -3.66 12 -4 12 C-3.979375 11.05125 -3.95875 10.1025 -3.9375 9.125 C-3.77448174 6.09333717 -3.77448174 6.09333717 -5 4 C-4.34 4 -3.68 4 -3 4 C-2.67 3.34 -2.34 2.68 -2 2 C-1.34 1.34 -0.68 0.68 0 0 Z " fill="#F0CE31" transform="translate(406,152)"/>
<path d="M0 0 C1.32 0.33 2.64 0.66 4 1 C0.09543873 4.53269829 -2.80177328 6.63855967 -8 8 C-8 7.34 -8 6.68 -8 6 C-7.01 6 -6.02 6 -5 6 C-5 5.34 -5 4.68 -5 4 C-3.68 4 -2.36 4 -1 4 C-0.67 2.68 -0.34 1.36 0 0 Z " fill="#F2D13C" transform="translate(392,171)"/>
<path d="M0 0 C2.97595467 2.55081829 4.44002566 5.43434437 6 9 C6 9.99 6 10.98 6 12 C5.34 12 4.68 12 4 12 C3.67 11.01 3.34 10.02 3 9 C2.2265625 8.3503125 2.2265625 8.3503125 1.4375 7.6875 C-0.66941181 5.21416874 -0.20908421 3.1362632 0 0 Z " fill="#F2CE38" transform="translate(401,118)"/>
<path d="M0 0 C-0.33 1.65 -0.66 3.3 -1 5 C-5.455 5.495 -5.455 5.495 -10 6 C-4.4 0 -4.4 0 0 0 Z " fill="#F2C934" transform="translate(117,185)"/>
<path d="M0 0 C0.66 0.33 1.32 0.66 2 1 C2 2.32 2 3.64 2 5 C2.66 5.33 3.32 5.66 4 6 C4 6.66 4 7.32 4 8 C0.2047869 6.50902342 -1.61042731 4.24299151 -4 1 C-2.68 1.33 -1.36 1.66 0 2 C0 1.34 0 0.68 0 0 Z " fill="#F4D02E" transform="translate(105,248)"/>
<path d="M0 0 C0 1.32 0 2.64 0 4 C-2.3125 4.25 -2.3125 4.25 -5 4 C-6.8125 2 -6.8125 2 -8 0 C-4.94736336 -0.98120464 -3.05263664 -0.98120464 0 0 Z " fill="#F2CE4E" transform="translate(291,190)"/>
<path d="M0 0 C0.99 0.66 1.98 1.32 3 2 C1.6875 4 1.6875 4 0 6 C-0.99 6 -1.98 6 -3 6 C-3.33 4.68 -3.66 3.36 -4 2 C-2.68 1.34 -1.36 0.68 0 0 Z " fill="#F0D04D" transform="translate(248,253)"/>
<path d="M0 0 C0.66 0.33 1.32 0.66 2 1 C0.35 3.64 -1.3 6.28 -3 9 C-3.66 7.68 -4.32 6.36 -5 5 C-4.67 4.01 -4.34 3.02 -4 2 C-3.01 2 -2.02 2 -1 2 C-0.67 1.34 -0.34 0.68 0 0 Z " fill="#EFCD32" transform="translate(167,240)"/>
<path d="M0 0 C0.33 0.66 0.66 1.32 1 2 C-0.65 3.65 -2.3 5.3 -4 7 C-4.66 6.01 -5.32 5.02 -6 4 C-3.94766315 1.7522025 -2.99332739 0.9977758 0 0 Z " fill="#F5C91C" transform="translate(301,188)"/>
<path d="M0 0 C3.82097239 0.53069061 6.06171403 1.49701566 9 4 C6.03 4 3.06 4 0 4 C0 2.68 0 1.36 0 0 Z " fill="#F5CF30" transform="translate(146,185)"/>
<path d="M0 0 C1.17539996 0.92652701 2.34010577 1.86663387 3.5 2.8125 C4.1496875 3.33457031 4.799375 3.85664062 5.46875 4.39453125 C7 6 7 6 7 9 C3.6014593 7.8671531 2.26586505 6.73466472 0 4 C0 2.68 0 1.36 0 0 Z " fill="#EFCD36" transform="translate(393,109)"/>
<path d="M0 0 C-1.423125 0.37125 -1.423125 0.37125 -2.875 0.75 C-6.08693191 1.6857077 -6.08693191 1.6857077 -7.375 4.125 C-7.58125 4.74375 -7.7875 5.3625 -8 6 C-8 5.34 -8 4.68 -8 4 C-9.32 3.67 -10.64 3.34 -12 3 C-10.75823305 2.29773859 -9.50614401 1.61370891 -8.25 0.9375 C-7.20585937 0.36322266 -7.20585937 0.36322266 -6.140625 -0.22265625 C-3.63859372 -1.1312406 -2.4667645 -0.88336837 0 0 Z " fill="#F7D439" transform="translate(357,103)"/>
<path d="M0 0 C0.66 0.66 1.32 1.32 2 2 C1.6730244 4.61580479 1.17960932 6.64078137 0 9 C-0.99 8.67 -1.98 8.34 -3 8 C-2.37240135 5.07120629 -1.41377341 2.63904371 0 0 Z " fill="#EEF1F9" transform="translate(268,214)"/>
<path d="M0 0 C4.29238623 1.65091778 6.8793915 4.73754566 10 8 C9.67 8.66 9.34 9.32 9 10 C7.88625 8.8553125 7.88625 8.8553125 6.75 7.6875 C4.176446 5.04428801 4.176446 5.04428801 1.6875 3.3125 C1.130625 2.879375 0.57375 2.44625 0 2 C0 1.34 0 0.68 0 0 Z " fill="#EFCF40" transform="translate(190,107)"/>
<path d="M0 0 C0.99 0.33 1.98 0.66 3 1 C2.67 1.66 2.34 2.32 2 3 C2.99 3.33 3.98 3.66 5 4 C3.625 5.5 3.625 5.5 2 7 C1.34 7 0.68 7 0 7 C0 4.69 0 2.38 0 0 Z " fill="#F7D021" transform="translate(288,386)"/>
<path d="M0 0 C0.33 0.99 0.66 1.98 1 3 C4.00847418 4.22520264 4.00847418 4.22520264 7 5 C4 6 4 6 1.95703125 5.22265625 C1.24933594 4.83980469 0.54164062 4.45695312 -0.1875 4.0625 C-0.90292969 3.68222656 -1.61835937 3.30195313 -2.35546875 2.91015625 C-2.89816406 2.60980469 -3.44085938 2.30945313 -4 2 C-2.68 1.34 -1.36 0.68 0 0 Z " fill="#EDCD37" transform="translate(115,256)"/>
<path d="M0 0 C1.32 0 2.64 0 4 0 C4 0.66 4 1.32 4 2 C5.32 2.33 6.64 2.66 8 3 C8 3.99 8 4.98 8 6 C4.63408134 4.55746343 2.48952921 2.66735273 0 0 Z " fill="#F0D139" transform="translate(236,387)"/>
<path d="M0 0 C0.66 0.99 1.32 1.98 2 3 C0.38405168 5.04119788 -1.2856382 7.04072937 -3 9 C-3.66 9 -4.32 9 -5 9 C-5 8.34 -5 7.68 -5 7 C-4.34 7 -3.68 7 -3 7 C-2.690625 6.030625 -2.38125 5.06125 -2.0625 4.0625 C-1 1 -1 1 0 0 Z " fill="#F0DA80" transform="translate(296,236)"/>
<path d="M0 0 C0.33 0 0.66 0 1 0 C1.33 2.31 1.66 4.62 2 7 C1.01 7.33 0.02 7.66 -1 8 C-1 9.65 -1 11.3 -1 13 C-1.33 13 -1.66 13 -2 13 C-1.85769192 11.58297487 -1.71099254 10.1663904 -1.5625 8.75 C-1.48128906 7.96109375 -1.40007812 7.1721875 -1.31640625 6.359375 C-1.02365007 4.17635361 -0.57935581 2.1226818 0 0 Z " fill="#EBD177" transform="translate(226,205)"/>
<path d="M0 0 C0.66 0 1.32 0 2 0 C2.66 3.63 3.32 7.26 4 11 C3.01 11.495 3.01 11.495 2 12 C0.70756464 7.8803623 -0.26252625 4.33168317 0 0 Z " fill="#EBC72D" transform="translate(169,208)"/>
<path d="M0 0 C1.65 0 3.3 0 5 0 C6.06775224 1.96466413 7.06553465 3.96855359 8 6 C7.67 6.66 7.34 7.32 7 8 C5.83035398 6.8572081 4.66435444 5.71068285 3.5 4.5625 C2.8503125 3.92441406 2.200625 3.28632813 1.53125 2.62890625 C0 1 0 1 0 0 Z " fill="#EAD279" transform="translate(207,176)"/>
<path d="M0 0 C0.66 0 1.32 0 2 0 C2.33 1.32 2.66 2.64 3 4 C4.32 3.67 5.64 3.34 7 3 C6.67 4.65 6.34 6.3 6 8 C1.125 3.375 1.125 3.375 0 0 Z " fill="#EFDA7C" transform="translate(229,244)"/>
<path d="M0 0 C3.3125 -0.25 3.3125 -0.25 7 0 C8.9375 2 8.9375 2 10 4 C7 5 7 5 5.17578125 4.22265625 C3.45052083 3.1484375 1.72526042 2.07421875 0 1 C0 0.67 0 0.34 0 0 Z " fill="#EED67A" transform="translate(279,192)"/>
<path d="M0 0 C2.97 1.98 2.97 1.98 6 4 C4.68 4.99 3.36 5.98 2 7 C0 5 0 5 -0.125 2.375 C-0.08375 1.59125 -0.0425 0.8075 0 0 Z " fill="#F0D36E" transform="translate(234,185)"/>
<path d="M0 0 C2.375 -0.125 2.375 -0.125 5 0 C5.66 0.66 6.32 1.32 7 2 C6.625 4.125 6.625 4.125 6 6 C3.97945196 4.35830472 1.97956942 2.69088222 0 1 C0 0.67 0 0.34 0 0 Z " fill="#F2D971" transform="translate(217,186)"/>
<path d="M0 0 C0.66 0 1.32 0 2 0 C2 1.98 2 3.96 2 6 C0.02 6.33 -1.96 6.66 -4 7 C-3.34 6.21625 -2.68 5.4325 -2 4.625 C0.20201441 2.28487188 0.20201441 2.28487188 0 0 Z " fill="#EECD35" transform="translate(331,160)"/>
<path d="M0 0 C1 3 1 3 0.3125 5.125 C-1 7 -1 7 -3.125 7.75 C-4.053125 7.87375 -4.053125 7.87375 -5 8 C-3.62845496 5.04590299 -2.01136276 2.55991624 0 0 Z " fill="#F1CD3E" transform="translate(236,329)"/>
<path d="M0 0 C1.32 0.66 2.64 1.32 4 2 C3.01 2.33 2.02 2.66 1 3 C1 3.66 1 4.32 1 5 C-0.32 4.67 -1.64 4.34 -3 4 C-2.01 2.68 -1.02 1.36 0 0 Z " fill="#EAEDF0" transform="translate(285,218)"/>
<path d="M0 0 C0 3 0 3 -2 5.1875 C-2.66 5.785625 -3.32 6.38375 -4 7 C-4.66 6.67 -5.32 6.34 -6 6 C-2.25 1.125 -2.25 1.125 0 0 Z " fill="#EFCD38" transform="translate(106,191)"/>
<path d="M0 0 C0.66 0.33 1.32 0.66 2 1 C0.68 2.65 -0.64 4.3 -2 6 C-3.32 5.34 -4.64 4.68 -6 4 C-4.02 2.68 -2.04 1.36 0 0 Z " fill="#F1D475" transform="translate(246,184)"/>
<path d="M0 0 C1.65 0.33 3.3 0.66 5 1 C5.33 1.99 5.66 2.98 6 4 C5.236875 3.814375 4.47375 3.62875 3.6875 3.4375 C0.91032625 2.77180827 0.91032625 2.77180827 -2 4 C-2 3.34 -2 2.68 -2 2 C-1.34 2 -0.68 2 0 2 C0 1.34 0 0.68 0 0 Z " fill="#F0D533" transform="translate(338,171)"/>
<path d="M0 0 C2.31 0.66 4.62 1.32 7 2 C7 2.66 7 3.32 7 4 C6.34 4 5.68 4 5 4 C4.67 4.99 4.34 5.98 4 7 C2.02 3.535 2.02 3.535 0 0 Z " fill="#F1D56F" transform="translate(290,200)"/>
<path d="M0 0 C2.64 0.66 5.28 1.32 8 2 C5.8614515 4.1385485 4.86724686 4.42655063 2 5 C1.34 3.35 0.68 1.7 0 0 Z " fill="#F1CD38" transform="translate(298,197)"/>
</svg>
